<svg width="32" height="32" viewBox="0 0 32 32" fill="none" xmlns="http://www.w3.org/2000/svg">
<path d="M16.0001 21.3333C17.4146 21.3333 18.7711 20.7714 19.7713 19.7712C20.7715 18.771 21.3334 17.4144 21.3334 16C21.3334 14.5855 20.7715 13.2289 19.7713 12.2287C18.7711 11.2285 17.4146 10.6666 16.0001 10.6666C14.5856 10.6666 13.229 11.2285 12.2288 12.2287C11.2287 13.2289 10.6667 14.5855 10.6667 16C10.6667 17.4144 11.2287 18.771 12.2288 19.7712C13.229 20.7714 14.5856 21.3333 16.0001 21.3333Z" stroke="#FF9F0E" stroke-width="2" stroke-linecap="round" stroke-linejoin="round"/>
<path d="M4 21.3333V10.6667C4 8.89856 4.70238 7.20286 5.95262 5.95262C7.20286 4.70238 8.89856 4 10.6667 4H21.3333C23.1014 4 24.7971 4.70238 26.0474 5.95262C27.2976 7.20286 28 8.89856 28 10.6667V21.3333C28 23.1014 27.2976 24.7971 26.0474 26.0474C24.7971 27.2976 23.1014 28 21.3333 28H10.6667C8.89856 28 7.20286 27.2976 5.95262 26.0474C4.70238 24.7971 4 23.1014 4 21.3333Z" stroke="#FF9F0E" stroke-width="2"/>
<path d="M23.3333 8.68068L23.3473 8.66528" stroke="#FF9F0E" stroke-width="2" stroke-linecap="round" stroke-linejoin="round"/>
</svg>
